<svg xmlns="http://www.w3.org/2000/svg" viewBox="0 0 287.87 9.52"><title>deco-divider</title><g id="Layer_2" data-name="Layer 2"><g id="left-pole"><path d="M127.53,6H19.33c-.38.2-.75.36-1.12.52a12.1,12.1,0,0,1-2.61.72,7.05,7.05,0,0,1-1.3.1A8.27,8.27,0,0,1,13,7.19c-.86-.16-1.73-.37-2.6-.47L9.1,6.56,7.8,6.39l-1.3-.2L5.2,6C3.47,5.68,1.73,5.39,0,5V4.51c1.73-.39,3.47-.68,5.2-1l1.3-.21,1.3-.2L9.1,3l1.3-.16c.87-.1,1.74-.31,2.6-.47a8.27,8.27,0,0,1,1.3-.12,7,7,0,0,1,1.3.1A12.71,12.71,0,0,1,18.21,3c.37.16.74.32,1.12.52H124.62Z"/></g><g id="s-1"><path d="M145.35,8.27a.16.16,0,0,1-.06.13l0,0a14.71,14.71,0,0,1-4.11,1.09,8.22,8.22,0,0,1-2.6-.42,8.2,8.2,0,0,1-2.48-1.34l-.15-.12-.17-.14-5-4.14a8.25,8.25,0,0,0-5.31-1.94H122a.17.17,0,0,1-.09-.31l0,0a8.23,8.23,0,0,1,9.19.66l.13.11.18.16,5,4.14A8.18,8.18,0,0,0,140.61,8a8.13,8.13,0,0,0,1.14.08h3.43A.17.17,0,0,1,145.35,8.27Z"/></g><g id="s-2"><path d="M155.67,8.27a.16.16,0,0,1-.06.13l0,0a14.71,14.71,0,0,1-4.11,1.09,8.22,8.22,0,0,1-2.6-.42,8.2,8.2,0,0,1-2.48-1.34l-.15-.12-.17-.14-5-4.14a8.25,8.25,0,0,0-5.31-1.94h-3.43a.17.17,0,0,1-.09-.31l0,0a8.23,8.23,0,0,1,9.19.66l.13.11.18.16,5,4.14A8.18,8.18,0,0,0,150.93,8a8.13,8.13,0,0,0,1.14.08h3.43A.17.17,0,0,1,155.67,8.27Z"/></g><g id="s-3"><path d="M166,8.27a.16.16,0,0,1-.06.13l0,0a14.71,14.71,0,0,1-4.11,1.09,8.22,8.22,0,0,1-2.6-.42,8.2,8.2,0,0,1-2.48-1.34l-.15-.12-.17-.14-5-4.14a8.25,8.25,0,0,0-5.31-1.94h-3.43a.17.17,0,0,1-.09-.31l0,0a8.23,8.23,0,0,1,9.19.66l.13.11.18.16,5,4.14A8.18,8.18,0,0,0,161.25,8a8.13,8.13,0,0,0,1.14.08h3.43A.17.17,0,0,1,166,8.27Z"/></g><g id="right-pole"><path d="M287.87,4.51V5c-1.73.39-3.47.68-5.2,1l-1.3.21-1.3.2-1.3.17-1.3.16c-.87.1-1.74.31-2.6.47a8.27,8.27,0,0,1-1.3.12,7.05,7.05,0,0,1-1.3-.1,12.1,12.1,0,0,1-2.61-.72c-.37-.16-.74-.32-1.12-.52H163.25l-2.9-2.43H268.54c.38-.2.75-.36,1.12-.52a12.11,12.11,0,0,1,2.61-.72,7.05,7.05,0,0,1,1.3-.1,8.27,8.27,0,0,1,1.3.12c.86.16,1.73.37,2.6.47l1.3.16,1.3.17,1.3.2,1.3.21C284.4,3.83,286.14,4.12,287.87,4.51Z"/></g></g></svg>
