<svg xmlns="http://www.w3.org/2000/svg" xmlns:xlink="http://www.w3.org/1999/xlink" viewBox="0 0 100 100" version="1.1" x="0px" y="0px"><title>name-ornament</title><desc>Created with Sketch.</desc><g stroke="none" stroke-width="1" fill="none" fill-rule="evenodd"><g fill="#000000"><path transform="rotate(90,50,50) scale(1, -1) translate(0, -100)" d="M53.0914169,78.9147373 C57.0978953,78.3226118 59.4364166,81.7791247 59.4364166,85.2915086 C59.4364166,88.1949732 57.5614165,89.519377 56.6229037,89.9173345 C55.6843909,90.3152921 53.8085323,90.6863306 53.8085323,90.6863306 C54.6910108,90.2431902 55.5141523,88.5525693 55.5141523,87.4977823 C55.5141523,86.0085152 54.3068627,84.8012256 52.8175955,84.8012256 C51.3283284,84.8012256 50.1210388,86.0085152 50.1210388,87.4977823 C50.1210388,88.5914912 50.6997148,90.5386452 51.5969894,91.4958394 C52.5473791,92.3738231 53.779947,92.6457543 55.2690108,92.6457543 C59.1952606,92.6457543 62.3798075,88.8544565 62.3798075,85.528926 C62.3798075,82.2033955 61.6973624,80.2697032 60.4445345,77.9254112 C59.1917066,75.5811192 55.4405922,70.6408922 55.4405922,70.6408922 C48.8323027,64.2093377 44.8990691,63.2287751 42.0313685,63.2287716 C37.8343429,63.2287664 34.4319813,66.6311331 34.4319813,70.8281588 C34.4319813,73.5308455 35.8428566,75.9040046 37.9682701,77.2512992 C33.9859008,76.3985105 31,72.858895 31,68.6218851 C31,63.7479198 35.6865541,59.6648417 40.5605194,59.6648417 C42.0313685,59.6648417 43.1014846,59.9186052 45.6223462,60.5887346 C41.5747861,57.2480828 38.2538861,53.8523702 37.5824021,53.1518937 C34.4163336,49.849125 32.4708491,45.3670636 32.4708491,40.43061 C32.4708491,32.0669481 39.0853125,24.1724342 48.3601539,20.4121581 C57.2646812,16.8020176 59.0493956,12.3128936 59.0493956,9.29339084 C59.0493956,6.2738881 57.4095832,5.36425413 55.5141523,5.36425413 C54.0553107,5.36425413 52.3187797,6.77587683 51.8220633,8.05938214 C51.6720453,7.5171537 51.5918879,6.94590687 51.5918879,6.35593828 C51.5918879,2.83585224 54.5195924,8.1362087e-10 58.0394425,4.25252755e-19 C59.8930123,-4.28456895e-10 67.3131067,0.841594599 66.3003793,10.0330611 C65.7677387,14.8672815 61.1445708,20.815884 56.1134146,22.8494636 L50.2551193,24.9710449 L53.7981616,24.9710449 C60.7029458,24.9710449 66.3003793,31.0744106 66.3003793,37.9791947 C66.3003793,41.1099296 65.1496284,43.9718923 63.2480292,46.16518 C62.7584175,47.0275929 60.6948093,50.0423562 60.3206418,53.6755839 C60.1009765,55.8085705 61.4396828,58.2357641 61.5960043,58.4100109 C62.0896953,58.9603132 62.8063299,59.3065072 63.6038225,59.3065072 C65.0930897,59.3065072 66.3003793,58.0992176 66.3003793,56.6099505 C66.3003793,55.3591335 66.1286313,55.2562369 65.0115908,54.4017764 C67.2721373,54.8382761 68.2615115,56.428207 68.2615115,58.8162242 C68.2615115,61.5239827 66.0664395,63.7190546 63.358681,63.7190546 C62.2112708,63.7190546 57.7488949,62.60566 56.6001695,57.6450705 C56.1134148,55.5430969 56.1057217,52.3524619 57.2560503,49.9970646 C56.1578782,50.3124644 54.9977499,50.4814124 53.7981616,50.4814124 C46.8933775,50.4814124 41.3709553,45.4095764 41.3709553,38.5047922 C41.3709553,35.6764141 43.8038005,30.8723815 49.1404727,30.8700906 C52.6605587,30.8685795 55.5141523,33.7236841 55.5141523,37.2437702 C55.5141523,40.4206806 52.3275742,42.1466107 52.3275742,42.1466107 C52.7891967,41.5320437 53.0627371,40.7681297 53.0627371,39.9403269 C53.0627371,37.909508 51.4164331,36.2632041 49.3856142,36.2632041 C47.3547953,36.2632041 45.7084914,37.909508 45.7084914,39.9403269 C45.7084914,41.0093823 46.0710183,42.9829124 47.2722869,44.2243579 C49.010432,46.0206359 51.1011908,47.0494311 53.7981616,47.0494311 C59.0782907,47.0494311 63.358681,42.7690407 63.358681,37.4889117 C63.358681,32.2087826 58.331794,27.4412621 53.051665,27.4412621 C49.0386583,27.0130495 45.6223462,28.7097295 45.6223462,28.7097295 C41.3010676,30.4756099 38.3542457,36.1750274 38.3542457,41.411176 C38.3542457,46.2762822 41.5531763,50.4254097 44.2376422,53.3622553 C46.9221082,56.2991008 58.0394418,67.5960318 59.0493956,68.794272 C60.677271,70.7256333 64.3123281,75.7741542 65.0271871,77.5949858 C65.7420461,79.4158173 66.7136254,82.3380717 66.3679787,86.7613555 C65.9049902,92.6862777 60.9809379,98.0388678 55.0238692,98.0388678 C51.6534428,98.0388678 49.009207,96.3635747 46.6661242,94.0715812 C46.6661242,94.0715812 45.7535287,93.146932 44.8990696,92.6708438 C44.0446104,92.1947556 43.2848012,91.6651882 42.27651,91.6651882 C40.1103033,91.6651882 38.3542457,93.4212458 38.3542457,95.5874526 C38.3542457,97.7536594 40.1103033,99.509717 42.27651,99.509717 C42.6001804,99.509717 41.5117025,100 40.5605194,100 C37.1758213,100 34.4319813,97.25616 34.4319813,93.8714619 C34.4319813,90.4867638 37.1758213,87.7429239 40.5605194,87.7429239 C42.0109856,87.7429239 43.3437624,88.246812 44.3933496,89.089088 C44.2909766,88.4922598 44.2376422,87.8786787 44.2376422,87.2526408 C44.2376422,84.6989186 45.1507052,83.2072856 46.0668317,81.5943959 C46.0668317,81.5943959 47.1398271,79.3881932 47.272286,78.7283282 C47.4047449,78.0684632 48.567901,75.2658987 48.0986493,73.5321404 C47.6293975,71.798382 47.1116134,71.2907802 45.6223462,71.2907802 C44.133079,71.2907802 43.2042024,72.4539386 43.2042024,73.9432058 C43.2042024,74.4522735 43.5505539,76.0925572 43.7957256,76.4987732 C42.6717668,75.6989742 41.0925509,74.2996817 41.0925509,72.8151269 C41.0925509,70.3781442 42.1494852,67.778474 46.0668317,67.778474 C46.0668317,67.778474 47.9433765,67.8528855 49.9635948,69.785084 C52.2479247,71.9698868 50.6028083,77.9254089 49.9635948,80.1958108 C49.9635948,80.1958108 51.3109174,79.1819388 53.0914169,78.9147373 Z"/></g></g></svg>
