<svg xmlns="http://www.w3.org/2000/svg" viewBox="0 0 95.18 84.25"><title>deco-scallop</title><g id="Layer_2" data-name="Layer 2"><g id="Layer_1-2" data-name="Layer 1"><path d="M95.15,40c-.26-3.67-3-6-5.72-8.3a18.46,18.46,0,0,1-4.18-4.36A23.18,23.18,0,0,1,83.15,21c-.81-3.53-1.64-7.18-4.5-9.67C76,9,72.47,8.89,69.08,8.81A19.52,19.52,0,0,1,63,8.06a23.19,23.19,0,0,1-5.71-3.54C54.42,2.33,51.43.07,47.64,0H47.5C44,0,41.31,2.15,38.71,4.24a19.52,19.52,0,0,1-5.13,3.32,23.17,23.17,0,0,1-6.65,1c-3.62.18-7.36.37-10.3,2.75-2.76,2.24-3.45,5.67-4.12,9a19.55,19.55,0,0,1-1.79,5.84A22.09,22.09,0,0,1,6.22,31C3.47,33.51.62,36.09.09,39.93c-.64,4.7,2.08,10.57,8.07,17.44a96.61,96.61,0,0,0,9.67,9.44l.09,4.82c.07,3.8,3.27,6.81,8,7.49q5.1.73,10.38,1.06c4.27,2.52,7.71,4.06,9.33,4.06s5.18-1.55,9.8-4.1c4.43-.28,9-.72,13.68-1.36s8.15-3.79,8.15-7.61V65.29a95.91,95.91,0,0,0,9.4-8.68C92.62,50.19,95.48,44.61,95.15,40ZM76.68,13.57c2.12,1.84,2.81,4.87,3.55,8.08a27.45,27.45,0,0,0,2.21,6.81A220.47,220.47,0,0,1,49.32,76.93c6.23-19.07,12.45-41.26,15-65.46a33.81,33.81,0,0,0,4.67.33C72,11.88,74.82,11.95,76.68,13.57Zm-36.1-7C42.88,4.74,45.06,3,47.59,3h0c2.81,0,5.28,1.92,7.9,3.9a28,28,0,0,0,5.92,3.74c-2.56,24.5-8.92,47-15.24,66.22C41.45,55.34,36.78,31.31,35.46,10A25.35,25.35,0,0,0,40.58,6.58Zm-22.07,7c2.18-1.77,5.28-1.92,8.57-2.09A36.08,36.08,0,0,0,32.51,11c1.38,21.14,6,44.8,10.63,66.07A227.94,227.94,0,0,1,14.06,26a29.42,29.42,0,0,0,1.38-5.19C16,17.93,16.59,15.16,18.51,13.6ZM10.43,55.4C5.1,49.29,2.55,44.09,3.06,40.33c.38-2.76,2.71-4.86,5.17-7.1a33.87,33.87,0,0,0,3.93-4A230.72,230.72,0,0,0,41.36,79.63C33.94,75.83,19.54,65.84,10.43,55.4Zm15.9,20.77c-2.46-.36-5.35-1.77-5.41-4.57l0-2.22c3.31,2.68,6.71,5.18,9.9,7.34C29.29,76.54,27.8,76.37,26.33,76.16Zm47.92-5c0,2.55-2.79,4.27-5.55,4.64-2.5.34-4.94.61-7.36.84,4.14-2.58,8.62-5.66,12.91-9Zm10.2-16.6C75,64.69,60.16,74.35,51.71,78.76A224,224,0,0,0,84.42,31.18,36.2,36.2,0,0,0,87.49,34c2.31,2,4.49,3.81,4.67,6.23C92.43,43.91,89.76,48.87,84.45,54.57Z"/></g></g></svg>
