<?xml version="1.0" encoding="utf-8"?>
<!-- Generator: Adobe Illustrator 21.0.2, SVG Export Plug-In . SVG Version: 6.00 Build 0)  -->
<svg version="1.1" id="Layer_1" xmlns="http://www.w3.org/2000/svg" xmlns:xlink="http://www.w3.org/1999/xlink" x="0px" y="0px"
	 viewBox="0 0 100 100.1" style="enable-background:new 0 0 100 100.1;" xml:space="preserve">
<style type="text/css">
	.st0{fill:none;stroke:#000000;stroke-width:1.75;stroke-miterlimit:10;}
	.st1{fill:none;stroke:#000000;stroke-width:1.5;stroke-miterlimit:10;}
	.st2{fill:none;stroke:#000000;stroke-miterlimit:10;}
	.st3{fill:none;stroke:#000000;stroke-width:0.5;stroke-miterlimit:10;}
	.st4{stroke:#000000;stroke-width:0.5;stroke-miterlimit:10;}
</style>
<g>
	<circle class="st0" cx="50.1" cy="50" r="34.1"/>
	<circle class="st1" cx="50.1" cy="50" r="26.1"/>
	<circle class="st2" cx="50.1" cy="50" r="9"/>
	<circle cx="50.1" cy="50" r="4"/>
	<g>
		<g>
			<path d="M35.8,24.9c1.6,0,1.6-2.5,0-2.5S34.2,24.9,35.8,24.9L35.8,24.9z"/>
		</g>
	</g>
	<g>
		<g>
			<path d="M49.8,20.9c1.6,0,1.6-2.5,0-2.5S48.2,20.9,49.8,20.9L49.8,20.9z"/>
		</g>
	</g>
	<g>
		<g>
			<path d="M63.9,24.9c1.6,0,1.6-2.5,0-2.5S62.3,24.9,63.9,24.9L63.9,24.9z"/>
		</g>
	</g>
	<g>
		<g>
			<path d="M74.9,34c1.6,0,1.6-2.5,0-2.5S73.3,34,74.9,34L74.9,34z"/>
		</g>
	</g>
	<g>
		<g>
			<path d="M79.9,48c1.6,0,1.6-2.5,0-2.5S78.3,48,79.9,48L79.9,48z"/>
		</g>
	</g>
	<g>
		<g>
			<path d="M77.9,62.1c1.6,0,1.6-2.5,0-2.5S76.3,62.1,77.9,62.1L77.9,62.1z"/>
		</g>
	</g>
	<g>
		<g>
			<path d="M69.9,74.1c1.6,0,1.6-2.5,0-2.5S68.3,74.1,69.9,74.1L69.9,74.1z"/>
		</g>
	</g>
	<g>
		<g>
			<path d="M56.9,80.1c1.6,0,1.6-2.5,0-2.5S55.2,80.1,56.9,80.1L56.9,80.1z"/>
		</g>
	</g>
	<g>
		<g>
			<path d="M42.8,80.1c1.6,0,1.6-2.5,0-2.5S41.2,80.1,42.8,80.1L42.8,80.1z"/>
		</g>
	</g>
	<g>
		<g>
			<path d="M29.8,73.1c1.6,0,1.6-2.5,0-2.5S28.2,73.1,29.8,73.1L29.8,73.1z"/>
		</g>
	</g>
	<g>
		<g>
			<path d="M22.7,62.1c1.6,0,1.6-2.5,0-2.5S21.1,62.1,22.7,62.1L22.7,62.1z"/>
		</g>
	</g>
	<g>
		<g>
			<path d="M20.7,48c1.6,0,1.6-2.5,0-2.5S19.1,48,20.7,48L20.7,48z"/>
		</g>
	</g>
	<g>
		<g>
			<path d="M25.8,34c1.6,0,1.6-2.5,0-2.5S24.1,34,25.8,34L25.8,34z"/>
		</g>
	</g>
	<g>
		<g>
			<path d="M50.2,44.4c0.8,0,0.8-1.3,0-1.3S49.4,44.4,50.2,44.4L50.2,44.4z"/>
		</g>
	</g>
	<g>
		<g>
			<path d="M56.7,50.4c0.8,0,0.8-1.3,0-1.3S55.9,50.4,56.7,50.4L56.7,50.4z"/>
		</g>
	</g>
	<g>
		<g>
			<path d="M43.7,50.4c0.8,0,0.8-1.3,0-1.3S42.9,50.4,43.7,50.4L43.7,50.4z"/>
		</g>
	</g>
	<g>
		<g>
			<path d="M50.2,57.4c0.8,0,0.8-1.3,0-1.3S49.4,57.4,50.2,57.4L50.2,57.4z"/>
		</g>
	</g>
	<g>
		<path class="st3" d="M47.5,13.1c0.3-0.1,0.7-0.3,0.9-0.4"/>
		<path class="st3" d="M48.3,12.6c0-0.1-0.3-0.1-0.4-0.2c-0.1-0.1-0.1-0.4-0.1-0.5c-0.1-0.4,0.2-0.6,0.5-0.7"/>
		<path class="st3" d="M47.9,11.1c0.2,0.1,0.3,0.1,0.5,0.1"/>
		<path class="st3" d="M49.8,1.1c-1,0-1.9,1.3-2,2.8v2c0.3,0.5,0.4,1,0.5,1.6c0.1,0.5,0.1,1.2,0.1,1.8c0,0.4-0.1,0.7-0.2,1
			c-0.1,0.3-0.2,0.5-0.4,0.8c0,0,0,0,0,0"/>
		<path class="st3" d="M49.8,1.1c1,0,1.9,1.3,2,2.8v2c-0.3,0.5-0.4,1-0.5,1.6c-0.1,0.5-0.2,1.2-0.1,1.8c0,0.4,0.1,0.7,0.2,1
			c0.1,0.3,0.2,0.5,0.4,0.8c0,0,0,0,0,0"/>
		<path class="st3" d="M52.2,13.1c-0.3-0.1-0.7-0.3-0.9-0.4"/>
		<path class="st3" d="M51.4,12.6c0-0.1,0.3-0.1,0.4-0.2c0.1-0.1,0.1-0.4,0.1-0.5c0.1-0.4-0.2-0.6-0.5-0.7"/>
		<path class="st3" d="M51.8,11.1c-0.2,0.1-0.3,0.1-0.5,0.1"/>
		<g>
			<path class="st4" d="M47.9,32.8c0,0.4,0.3,1.1,0.9,1.1H51c0.5,0,0.9-0.7,0.9-1.1"/>
			<rect x="47.2" y="35.7" width="5.2" height="5.7"/>
			<path class="st4" d="M48.9,34c-0.2-0.1-0.9,0-1,0.1c-0.1,0.1-0.1,0.7-0.1,0.8c0,0.4,0.1,0.5,0.8,0.9h2.5c0.6-0.4,0.8-0.5,0.8-0.9
				c0-0.1,0.1-0.7-0.1-0.8c-0.1-0.1-0.9-0.2-1-0.1"/>
			<path class="st4" d="M47.9,33c0-0.4,0.3-0.7,0.5-1.1c0.2-0.4,0.2-0.8,0.2-1.2c0-0.4-0.1-0.7-0.2-1c-0.2-0.5-0.5-0.8-0.5-1.3
				c0.1,0,0.2,0,0.3,0h3.4c0.1,0,0.2,0,0.3,0c0,0.5-0.3,0.8-0.5,1.3c-0.1,0.3-0.2,0.7-0.2,1c0,0.4,0,0.8,0.2,1.2
				c0.2,0.4,0.5,0.6,0.5,1.1"/>
			<path class="st4" d="M51.3,26.5h-2.8c-0.2,0.3-0.5,0.4-0.6,0.8c-0.1,0.3,0.1,0.7,0.2,1h3.5c0.1-0.3,0.3-0.6,0.2-1
				C51.8,26.9,51.4,26.9,51.3,26.5"/>
			<path d="M47.2,15.7v-2.8h0.6c0.1-0.1,0.2-0.3,0.4-0.4c0,0,0,0,0,0c-0.1-0.1-0.2-0.1-0.3-0.3c-0.1-0.1-0.1-0.3,0-0.5
				c0-0.3,0.2-0.5,0.5-0.5c0,0,0-0.1,0-0.1c0,0,0,0,0,0c-0.1,0-0.2-0.1-0.2-0.2c0-0.1-0.1-0.1,0-0.2c0.1-0.2,0.2-0.3,0.2-0.5
				c0-0.1,0.1-0.1,0.1-0.1c0,0,0,0,0,0c0-0.5,0.1-1,0.1-1.6c0-0.4-0.1-0.8,0-1.2c0-0.1-0.1-0.3-0.1-0.4c-0.1-0.1-0.1-0.2-0.2-0.2
				c0-0.1-0.1-0.2-0.1-0.3c0,0,0,0,0,0c0-0.1,0-0.1,0-0.2c-0.2-0.6-0.2-1.2-0.2-1.9c-0.1-0.8,0.1-1.5,0.5-2.2
				c0.4-0.7,1.4-1.3,2.2-0.8c0.3,0.2,0.5,0.4,0.6,0.7c0.1,0.1,0.3,0.2,0.4,0.4C52,3.6,52,5.1,51.5,6.3c-0.1,0.1-0.1,0.3-0.2,0.4
				c0,0,0,0.1,0,0.1c-0.2,1.1-0.2,2.5,0.1,3.6c0,0.1,0,0.2,0,0.2c0,0,0,0,0,0c0.3,0,0.3,0.5,0,0.5c0,0,0,0,0,0c0,0,0,0,0,0
				c0,0,0,0,0,0.1c0,0,0,0.1,0,0.1c0,0,0,0,0,0c0.2,0.1,0.4,0.3,0.4,0.6c0,0.1,0,0.2-0.1,0.3c0,0.1-0.1,0.3-0.2,0.3c0,0,0,0,0,0
				c0,0,0,0-0.1,0c0,0-0.1,0-0.1,0.1c0,0.1,0,0.1,0,0.2c0,0,0,0,0,0c0.1,0,0.2,0.1,0.2,0.2h0.8v2.8"/>
		</g>
		<rect x="47.2" y="24" width="5.2" height="2.5"/>
	</g>
	<g>
		<path class="st3" d="M52.6,87c-0.3,0.1-0.7,0.3-0.9,0.4"/>
		<path class="st3" d="M51.8,87.4c0,0.1,0.3,0.1,0.4,0.2c0.1,0.1,0.1,0.4,0.1,0.5c0.1,0.4-0.2,0.6-0.5,0.7"/>
		<path class="st3" d="M52.1,89c-0.2-0.1-0.3-0.1-0.5-0.1"/>
		<path class="st3" d="M50.2,99c1,0,1.9-1.3,2-2.8v-2c-0.3-0.5-0.4-1-0.5-1.6c-0.1-0.5-0.1-1.2-0.1-1.8c0-0.4,0.1-0.7,0.2-1
			c0.1-0.3,0.2-0.5,0.4-0.8c0,0,0,0,0,0"/>
		<path class="st3" d="M50.3,99c-1,0-1.9-1.3-2-2.8v-2c0.3-0.5,0.4-1,0.5-1.6c0.1-0.5,0.2-1.2,0.1-1.8c0-0.4-0.1-0.7-0.2-1
			c-0.1-0.3-0.2-0.5-0.4-0.8c0,0,0,0,0,0"/>
		<path class="st3" d="M47.8,87c0.3,0.1,0.7,0.3,0.9,0.4"/>
		<path class="st3" d="M48.6,87.4c0,0.1-0.3,0.1-0.4,0.2c-0.1,0.1-0.1,0.4-0.1,0.5c-0.1,0.4,0.2,0.6,0.5,0.7"/>
		<path class="st3" d="M48.3,89c0.2-0.1,0.3-0.1,0.5-0.1"/>
		<g>
			<path class="st4" d="M52.2,67.3c0-0.4-0.3-1.1-0.9-1.1h-2.3c-0.5,0-0.9,0.7-0.9,1.1"/>
			<rect x="47.6" y="58.7" width="5.2" height="5.7"/>
			<path class="st4" d="M51.1,66.1c0.2,0.1,0.9,0,1-0.1c0.1-0.1,0.1-0.7,0.1-0.8c0-0.4-0.1-0.5-0.8-0.9H49c-0.6,0.4-0.8,0.5-0.8,0.9
				c0,0.1-0.1,0.7,0.1,0.8c0.1,0.1,0.9,0.2,1,0.1"/>
			<path class="st4" d="M52.2,67.1c0,0.4-0.3,0.7-0.5,1.1c-0.2,0.4-0.2,0.8-0.2,1.2c0,0.4,0.1,0.7,0.2,1c0.2,0.4,0.5,0.8,0.5,1.3
				c-0.1,0-0.2,0-0.3,0h-3.4c-0.1,0-0.2,0-0.3,0c0-0.5,0.3-0.8,0.5-1.3c0.1-0.3,0.2-0.7,0.2-1c0-0.4,0-0.8-0.2-1.2
				c-0.2-0.4-0.5-0.6-0.5-1.1"/>
			<path class="st4" d="M48.8,73.5h2.8c0.2-0.3,0.5-0.4,0.6-0.8c0.1-0.3-0.1-0.7-0.2-1h-3.5c-0.1,0.3-0.3,0.6-0.2,1
				C48.3,73.2,48.6,73.2,48.8,73.5"/>
			<path d="M52.8,84.4v2.8h-0.6c-0.1,0.1-0.2,0.3-0.4,0.4c0,0,0,0,0,0c0.1,0.1,0.2,0.1,0.3,0.3c0.1,0.1,0.1,0.3,0,0.5
				c0,0.3-0.2,0.5-0.5,0.5c0,0,0,0.1,0,0.1c0,0,0,0,0,0c0.1,0,0.2,0.1,0.2,0.2c0,0.1,0,0.1,0,0.2c-0.1,0.2-0.2,0.3-0.2,0.5
				c0,0.1-0.1,0.1-0.1,0.1c0,0,0,0,0,0c0,0.5-0.1,1-0.1,1.6c0,0.4,0.1,0.8,0,1.2c0,0.1,0.1,0.3,0.1,0.4c0.1,0.1,0.1,0.2,0.2,0.2
				c0,0.1,0.1,0.2,0.1,0.3c0,0,0,0,0,0c0,0.1,0,0.1,0,0.2c0.2,0.6,0.2,1.2,0.2,1.9c0.1,0.8-0.1,1.5-0.5,2.2
				c-0.4,0.7-1.4,1.3-2.2,0.8c-0.3-0.2-0.5-0.4-0.6-0.7c-0.1-0.1-0.3-0.2-0.4-0.4c-0.6-1.2-0.6-2.7-0.1-3.9c0-0.1,0.1-0.3,0.2-0.4
				c0,0,0-0.1,0-0.1c0.2-1.1,0.2-2.5-0.1-3.6c0-0.1,0-0.2,0-0.2c0,0,0,0,0,0c-0.3,0-0.3-0.5,0-0.5c0,0,0,0,0,0c0,0,0,0,0,0
				c0,0,0,0,0-0.1c0,0,0-0.1,0-0.1c0,0,0,0,0,0c-0.2-0.1-0.4-0.3-0.4-0.6c0-0.1,0-0.2,0.1-0.3c0-0.1,0.1-0.3,0.2-0.3c0,0,0,0,0,0
				c0,0,0,0,0.1,0c0,0,0.1,0,0.1-0.1c0-0.1,0-0.1,0-0.2c0,0,0,0,0,0c-0.1,0-0.2-0.1-0.2-0.2h-0.8v-2.8"/>
		</g>
		<rect x="47.6" y="73.5" width="5.2" height="2.5"/>
	</g>
	<g>
		<path class="st3" d="M13.1,52.2c-0.1-0.3-0.3-0.7-0.4-0.9"/>
		<path class="st3" d="M12.7,51.3c-0.1,0-0.1,0.3-0.2,0.4c-0.1,0.1-0.4,0.1-0.5,0.1c-0.4,0.1-0.6-0.2-0.7-0.5"/>
		<path class="st3" d="M11.1,51.7c0.1-0.2,0.1-0.3,0.1-0.5"/>
		<path class="st3" d="M1.2,49.8c0,1,1.3,1.9,2.8,2h2c0.5-0.3,1-0.4,1.6-0.5c0.5-0.1,1.2-0.1,1.8-0.1c0.4,0,0.7,0.1,1,0.2
			c0.3,0.1,0.5,0.2,0.8,0.4c0,0,0,0,0,0"/>
		<path class="st3" d="M1.2,49.8c0-1,1.3-1.9,2.8-2h2c0.5,0.3,1,0.4,1.6,0.5c0.5,0.1,1.2,0.1,1.8,0.1c0.4,0,0.7-0.1,1-0.2
			c0.3-0.1,0.5-0.2,0.8-0.4c0,0,0,0,0,0"/>
		<path class="st3" d="M13.1,47.4c-0.1,0.3-0.3,0.7-0.4,0.9"/>
		<path class="st3" d="M12.7,48.2c-0.1,0-0.1-0.3-0.2-0.4c-0.1-0.1-0.4-0.1-0.5-0.1c-0.4-0.1-0.6,0.2-0.7,0.5"/>
		<path class="st3" d="M11.1,47.8c0.1,0.2,0.1,0.3,0.1,0.5"/>
		<g>
			<path class="st4" d="M32.9,51.8c0.4,0,1.1-0.3,1.1-0.9v-2.3c0-0.5-0.7-0.9-1.1-0.9"/>
			<rect x="35.8" y="47.2" width="5.7" height="5.2"/>
			<path class="st4" d="M34.1,50.7c-0.1,0.2,0,0.9,0.1,1c0.1,0.1,0.7,0.1,0.8,0.1c0.4,0,0.5-0.1,0.9-0.8v-2.5
				c-0.4-0.6-0.5-0.8-0.9-0.8c-0.1,0-0.7-0.1-0.8,0.1c-0.1,0.1-0.2,0.9-0.1,1"/>
			<path class="st4" d="M33.1,51.8c-0.4,0-0.7-0.3-1.1-0.5c-0.4-0.2-0.8-0.2-1.2-0.2c-0.4,0-0.7,0.1-1,0.2c-0.5,0.2-0.8,0.5-1.3,0.5
				c0-0.1,0-0.2,0-0.3v-3.4c0-0.1,0-0.2,0-0.3c0.5,0,0.8,0.3,1.3,0.5c0.3,0.1,0.7,0.2,1,0.2c0.4,0,0.8,0,1.2-0.2
				c0.4-0.2,0.6-0.5,1.1-0.5"/>
			<path class="st4" d="M26.6,48.4v2.8c0.3,0.2,0.4,0.5,0.8,0.6c0.3,0.1,0.7-0.1,1-0.2V48c-0.3-0.1-0.6-0.3-1-0.2
				C27,47.8,27,48.2,26.6,48.4"/>
			<path d="M15.8,52.4H13v-0.6c-0.1-0.1-0.3-0.2-0.4-0.4c0,0,0,0,0,0c-0.1,0.1-0.1,0.2-0.3,0.3c-0.1,0.1-0.3,0.1-0.5,0
				c-0.3,0-0.5-0.2-0.5-0.5c0,0-0.1,0-0.1,0c0,0,0,0,0,0c0,0.1-0.1,0.2-0.2,0.2c-0.1,0-0.1,0.1-0.2,0c-0.2-0.1-0.3-0.2-0.5-0.2
				c-0.1,0-0.1-0.1-0.1-0.1c0,0,0,0,0,0c-0.5,0-1-0.1-1.6-0.1c-0.4,0-0.8,0.1-1.2,0c-0.1,0-0.3,0.1-0.4,0.1
				c-0.1,0.1-0.2,0.1-0.2,0.2c-0.1,0-0.2,0.1-0.3,0.1c0,0,0,0,0,0c-0.1,0-0.1,0-0.2,0c-0.6,0.2-1.2,0.2-1.9,0.2
				c-0.8,0.1-1.5-0.1-2.2-0.5C1.5,51,0.9,50,1.4,49.2c0.2-0.3,0.4-0.5,0.7-0.6c0.1-0.1,0.2-0.3,0.4-0.4c1.2-0.6,2.7-0.6,3.9-0.1
				c0.1,0,0.3,0.1,0.4,0.2c0,0,0.1,0,0.1,0c1.1,0.2,2.5,0.2,3.6-0.1c0.1,0,0.2,0,0.2,0c0,0,0,0,0,0c0-0.3,0.5-0.3,0.5,0c0,0,0,0,0,0
				c0,0,0,0,0,0c0,0,0,0,0.1,0c0,0,0.1,0,0.1,0c0,0,0,0,0,0c0.1-0.2,0.3-0.4,0.6-0.4c0.1,0,0.2,0,0.3,0.1c0.1,0,0.3,0.1,0.3,0.2
				c0,0,0,0,0,0c0,0,0,0,0,0.1c0,0,0,0.1,0.1,0.1c0.1,0,0.1,0,0.2,0c0,0,0,0,0,0c0-0.1,0.1-0.2,0.2-0.2v-0.8h2.8"/>
		</g>
		<rect x="24.1" y="47.2" width="2.5" height="5.2"/>
	</g>
	<g>
		<path class="st3" d="M86.9,52.4c0.1-0.3,0.3-0.7,0.4-0.9"/>
		<path class="st3" d="M87.3,51.6c0.1,0,0.1,0.3,0.2,0.4c0.1,0.1,0.4,0.1,0.5,0.1c0.4,0.1,0.6-0.2,0.7-0.5"/>
		<path class="st3" d="M88.9,51.9c-0.1-0.2-0.1-0.3-0.1-0.5"/>
		<path class="st3" d="M98.8,50c0,1-1.3,1.9-2.8,2h-2c-0.5-0.3-1-0.4-1.6-0.5c-0.5-0.1-1.2-0.1-1.8-0.1c-0.4,0-0.7,0.1-1,0.2
			c-0.3,0.1-0.5,0.2-0.8,0.4c0,0,0,0,0,0"/>
		<path class="st3" d="M98.8,50.1c0-1-1.3-1.9-2.8-2h-2c-0.5,0.3-1,0.4-1.6,0.5c-0.5,0.1-1.2,0.2-1.8,0.1c-0.4,0-0.7-0.1-1-0.2
			c-0.3-0.1-0.5-0.2-0.8-0.4c0,0,0,0,0,0"/>
		<path class="st3" d="M86.9,47.6c0.1,0.3,0.3,0.7,0.4,0.9"/>
		<path class="st3" d="M87.3,48.5c0.1,0,0.1-0.3,0.2-0.4c0.1-0.1,0.4-0.1,0.5-0.1c0.4-0.1,0.6,0.2,0.7,0.5"/>
		<path class="st3" d="M88.9,48.1c-0.1,0.2-0.1,0.3-0.1,0.5"/>
		<g>
			<path class="st4" d="M67.1,52c-0.4,0-1.1-0.3-1.1-0.9v-2.3c0-0.5,0.7-0.9,1.1-0.9"/>
			<rect x="58.6" y="47.4" width="5.7" height="5.2"/>
			<path class="st4" d="M65.9,50.9c0.1,0.2,0,0.9-0.1,1C65.7,52.1,65.1,52,65,52c-0.4,0-0.5-0.1-0.9-0.8v-2.5
				c0.4-0.6,0.5-0.8,0.9-0.8c0.1,0,0.7-0.1,0.8,0.1c0.1,0.1,0.2,0.9,0.1,1"/>
			<path class="st4" d="M66.9,52c0.4,0,0.7-0.3,1.1-0.5c0.4-0.2,0.8-0.2,1.2-0.2c0.4,0,0.7,0.1,1,0.2c0.5,0.2,0.8,0.5,1.3,0.5
				c0-0.1,0-0.2,0-0.3v-3.4c0-0.1,0-0.2,0-0.3c-0.5,0-0.8,0.3-1.3,0.5c-0.3,0.1-0.7,0.2-1,0.2c-0.4,0-0.8,0-1.2-0.2
				c-0.4-0.2-0.6-0.5-1.1-0.5"/>
			<path class="st4" d="M73.4,48.6v2.8C73,51.6,73,51.9,72.6,52c-0.3,0.1-0.7-0.1-1-0.2v-3.5c0.3-0.1,0.6-0.3,1-0.2
				C73,48.1,73,48.4,73.4,48.6"/>
			<path d="M84.2,52.6H87V52c0.1-0.1,0.3-0.2,0.4-0.4c0,0,0,0,0,0c0.1,0.1,0.1,0.2,0.3,0.3c0.1,0.1,0.3,0.1,0.5,0
				c0.3,0,0.5-0.2,0.5-0.5c0,0,0.1,0,0.1,0c0,0,0,0,0,0c0,0.1,0.1,0.2,0.2,0.2c0.1,0,0.1,0,0.2,0c0.2-0.1,0.3-0.2,0.5-0.2
				c0.1,0,0.1-0.1,0.1-0.1c0,0,0,0,0,0c0.5,0,1-0.1,1.6-0.1c0.4,0,0.8,0.1,1.2,0c0.1,0,0.3,0.1,0.4,0.1c0.1,0.1,0.2,0.1,0.2,0.2
				c0.1,0,0.2,0.1,0.3,0.1c0,0,0,0,0,0c0.1,0,0.1,0,0.2,0c0.6,0.2,1.2,0.2,1.9,0.2c0.8,0.1,1.5-0.1,2.2-0.5c0.7-0.4,1.3-1.4,0.8-2.2
				c-0.2-0.3-0.4-0.5-0.7-0.6c-0.1-0.1-0.2-0.3-0.4-0.4c-1.2-0.6-2.7-0.6-3.9-0.1c-0.1,0-0.3,0.1-0.4,0.2c0,0-0.1,0-0.1,0
				c-1.1,0.2-2.5,0.2-3.6-0.1c-0.1,0-0.2,0-0.2,0c0,0,0,0,0,0c0-0.3-0.5-0.3-0.5,0c0,0,0,0,0,0c0,0,0,0,0,0c0,0,0,0-0.1,0
				c0,0-0.1,0-0.1,0c0,0,0,0,0,0C88.5,48.1,88.2,48,88,48c-0.1,0-0.2,0-0.3,0.1c-0.1,0-0.3,0.1-0.3,0.2c0,0,0,0,0,0c0,0,0,0,0,0.1
				c0,0,0,0.1-0.1,0.1c-0.1,0-0.1,0-0.2,0c0,0,0,0,0,0c0-0.1-0.1-0.2-0.2-0.2v-0.8h-2.8"/>
		</g>
		<rect x="73.4" y="47.4" width="2.5" height="5.2"/>
	</g>
	<g>
		<path class="st3" d="M20.9,27.3c0.1-0.3,0.2-0.7,0.3-0.9"/>
		<path class="st3" d="M21.1,26.4c-0.1-0.1-0.3,0.2-0.4,0.2c-0.1,0-0.3-0.2-0.5-0.3c-0.4-0.2-0.3-0.5-0.2-0.8"/>
		<path class="st3" d="M19.7,25.7c0.2-0.1,0.3-0.2,0.4-0.3"/>
		<path class="st3" d="M13.4,17.6c-0.6,0.7-0.3,2.2,0.8,3.3l1.5,1.3c0.6,0.1,1.1,0.4,1.6,0.7c0.5,0.3,1,0.7,1.4,1.1
			c0.2,0.3,0.5,0.5,0.7,0.8c0.1,0.2,0.3,0.5,0.4,0.8c0,0,0,0,0,0"/>
		<path class="st3" d="M13.4,17.7c0.6-0.7,2.2-0.6,3.4,0.3l1.5,1.3c0.2,0.6,0.5,1,0.9,1.5c0.4,0.4,0.8,0.9,1.3,1.2
			c0.3,0.2,0.6,0.4,0.9,0.5c0.3,0.1,0.5,0.2,0.9,0.3c0,0,0,0,0,0"/>
		<path class="st3" d="M24,23.7c-0.3,0.1-0.7,0.3-0.9,0.4"/>
		<path class="st3" d="M23.2,24.1c-0.1-0.1,0.1-0.3,0.1-0.5c0-0.1-0.2-0.3-0.3-0.4c-0.3-0.3-0.5-0.2-0.9,0"/>
		<path class="st3" d="M22.2,22.8c-0.1,0.2-0.1,0.3-0.2,0.4"/>
		<g>
			<path class="st4" d="M36,40c0.3,0.3,1.1,0.5,1.4,0.1l1.5-1.7c0.3-0.4,0-1.1-0.3-1.4"/>
			<rect x="39" y="39.5" transform="matrix(0.6587 -0.7524 0.7524 0.6587 -17.6333 45.7254)" width="5.2" height="5.7"/>
			<path class="st4" d="M37.6,40C37.4,40,37,40.7,37,40.8c0,0.2,0.5,0.5,0.6,0.6c0.3,0.2,0.5,0.2,1.2,0l1.6-1.9
				c0.1-0.7,0.1-0.9-0.2-1.2c-0.1-0.1-0.5-0.5-0.7-0.5c-0.2,0-0.7,0.5-0.7,0.7"/>
			<path class="st4" d="M36.1,40.1c-0.3-0.3-0.3-0.7-0.5-1.1c-0.2-0.4-0.4-0.7-0.8-1c-0.3-0.2-0.6-0.4-0.9-0.5
				c-0.5-0.1-0.9-0.1-1.3-0.5c0.1-0.1,0.1-0.1,0.2-0.2l2.2-2.6c0-0.1,0.1-0.2,0.2-0.2c0.4,0.3,0.4,0.8,0.6,1.2
				c0.2,0.3,0.4,0.6,0.6,0.8c0.3,0.3,0.6,0.5,1.1,0.6c0.4,0.1,0.8,0,1.1,0.3"/>
			<path class="st4" d="M33.5,33.3l-1.8,2.1c0.2,0.3,0,0.6,0.2,1c0.2,0.3,0.6,0.3,0.9,0.4l2.3-2.6c-0.2-0.3-0.3-0.7-0.6-0.8
				C34.1,33.2,33.9,33.4,33.5,33.3"/>
			<path d="M22.7,29.2l-2.1-1.8l0.4-0.5c-0.1-0.2-0.1-0.3,0-0.5c0,0,0,0,0,0c-0.1,0-0.3,0.1-0.4,0.1c-0.1,0-0.3-0.2-0.4-0.3
				c-0.2-0.2-0.2-0.5-0.1-0.7c0,0-0.1,0-0.1-0.1c0,0,0,0,0,0c-0.1,0.1-0.2,0.1-0.3,0.1c-0.1,0-0.1-0.1-0.2-0.1
				c-0.1-0.2-0.1-0.3-0.2-0.5c0-0.1,0-0.1,0-0.2c0,0,0,0,0,0c-0.4-0.3-0.7-0.8-1.1-1.1c-0.3-0.2-0.6-0.5-0.9-0.8
				c-0.1-0.1-0.3-0.1-0.4-0.2c-0.1,0-0.2,0-0.3,0s-0.2-0.1-0.3-0.1c0,0,0,0,0,0c-0.1,0-0.1-0.1-0.2-0.1c-0.6-0.3-1.1-0.7-1.6-1.1
				c-0.6-0.5-1.1-1.1-1.3-1.8c-0.3-0.8-0.1-1.9,0.8-2.2c0.3-0.1,0.6-0.1,0.9,0c0.2,0,0.4-0.1,0.6,0c1.3,0.4,2.4,1.4,3,2.5
				c0.1,0.1,0.1,0.3,0.1,0.4c0,0,0,0,0.1,0.1c0.7,0.9,1.7,1.8,2.8,2.3c0.1,0,0.1,0.1,0.2,0.1c0,0,0,0,0,0c0.2-0.2,0.6,0.1,0.4,0.3
				c0,0,0,0,0,0c0,0,0,0,0,0c0,0,0,0,0,0.1c0,0,0.1,0,0.1,0.1c0,0,0,0,0,0c0.2-0.1,0.5-0.1,0.7,0.1c0.1,0.1,0.1,0.1,0.1,0.2
				c0.1,0.1,0.1,0.2,0,0.3c0,0,0,0,0,0c0,0,0,0,0,0.1c0,0,0,0.1,0,0.1c0.1,0,0.1,0.1,0.2,0.1c0,0,0,0,0,0c0.1-0.1,0.2-0.1,0.3-0.1
				l0.5-0.6l2.1,1.8"/>
		</g>
		<rect x="29" y="32.3" transform="matrix(0.6588 -0.7523 0.7523 0.6588 -14.4782 35.2638)" width="5.2" height="2.5"/>
	</g>
	<g>
		<path class="st3" d="M79.4,27.3c-0.1-0.3-0.2-0.7-0.3-0.9"/>
		<path class="st3" d="M79.2,26.4c0.1-0.1,0.3,0.2,0.4,0.2c0.1,0,0.3-0.2,0.4-0.3c0.4-0.2,0.3-0.5,0.2-0.8"/>
		<path class="st3" d="M80.6,25.7c-0.2-0.1-0.3-0.2-0.4-0.3"/>
		<path class="st3" d="M86.9,17.6c0.6,0.7,0.3,2.2-0.8,3.3l-1.5,1.3c-0.6,0.1-1.1,0.4-1.6,0.7c-0.5,0.3-1,0.7-1.4,1.1
			c-0.2,0.3-0.5,0.5-0.7,0.8c-0.1,0.2-0.3,0.5-0.4,0.8c0,0,0,0,0,0"/>
		<path class="st3" d="M86.9,17.7c-0.6-0.7-2.2-0.6-3.4,0.3L82,19.3c-0.2,0.6-0.5,1-0.9,1.5c-0.3,0.4-0.8,0.9-1.3,1.2
			c-0.3,0.2-0.6,0.4-0.9,0.5c-0.3,0.1-0.5,0.2-0.9,0.3c0,0,0,0,0,0"/>
		<path class="st3" d="M76.3,23.7c0.3,0.1,0.7,0.3,0.9,0.4"/>
		<path class="st3" d="M77.1,24.1c0.1-0.1-0.1-0.3-0.1-0.5c0-0.1,0.2-0.3,0.3-0.4c0.3-0.3,0.5-0.2,0.8,0"/>
		<path class="st3" d="M78.1,22.8c0.1,0.2,0.1,0.3,0.2,0.4"/>
		<g>
			<path class="st4" d="M64.3,40c-0.3,0.3-1.1,0.5-1.4,0.1l-1.5-1.7c-0.3-0.4,0-1.1,0.3-1.4"/>
			<rect x="55.9" y="39.7" transform="matrix(0.7524 -0.6587 0.6587 0.7524 -13.3296 49.1362)" width="5.7" height="5.2"/>
			<path class="st4" d="M62.7,40c0.2,0.1,0.6,0.7,0.6,0.9c0,0.2-0.5,0.5-0.6,0.6c-0.3,0.2-0.5,0.2-1.2,0l-1.6-1.9
				c-0.1-0.7-0.1-0.9,0.2-1.2c0.1-0.1,0.5-0.5,0.7-0.5c0.2,0,0.7,0.5,0.7,0.7"/>
			<path class="st4" d="M64.2,40.1c0.3-0.3,0.3-0.7,0.5-1.1c0.2-0.4,0.4-0.7,0.8-1c0.3-0.2,0.6-0.4,0.9-0.5c0.5-0.1,0.9-0.1,1.3-0.5
				c-0.1-0.1-0.1-0.1-0.2-0.2l-2.2-2.6c0-0.1-0.1-0.2-0.2-0.2c-0.4,0.3-0.4,0.8-0.6,1.2c-0.2,0.3-0.4,0.6-0.6,0.8
				c-0.3,0.3-0.6,0.5-1.1,0.6c-0.4,0.1-0.8,0-1.1,0.3"/>
			<path class="st4" d="M66.8,33.3l1.8,2.1c-0.2,0.3,0,0.6-0.2,1c-0.2,0.3-0.6,0.3-0.9,0.4l-2.3-2.6c0.2-0.3,0.3-0.7,0.6-0.8
				C66.1,33.2,66.4,33.4,66.8,33.3"/>
			<path d="M77.6,29.2l2.1-1.8l-0.4-0.5c0.1-0.2,0.1-0.3,0-0.5c0,0,0,0,0,0c0.1,0,0.3,0.1,0.4,0.1c0.1,0,0.3-0.2,0.4-0.3
				c0.2-0.2,0.2-0.5,0.1-0.7c0,0,0.1,0,0.1-0.1c0,0,0,0,0,0c0.1,0.1,0.2,0.1,0.3,0.1c0.1,0,0.1-0.1,0.2-0.1c0.1-0.2,0.1-0.3,0.2-0.5
				c0-0.1,0-0.1,0-0.2c0,0,0,0,0,0c0.4-0.3,0.7-0.8,1.1-1.1c0.3-0.2,0.6-0.5,0.9-0.8c0.1-0.1,0.3-0.1,0.4-0.2c0.1,0,0.2,0,0.3,0
				c0.1,0,0.2-0.1,0.3-0.1c0,0,0,0,0,0c0.1,0,0.1-0.1,0.2-0.1c0.6-0.3,1.1-0.7,1.6-1.1c0.6-0.5,1.1-1.1,1.3-1.8
				c0.3-0.8,0.1-1.9-0.8-2.2c-0.3-0.1-0.6-0.1-0.9,0c-0.2,0-0.4-0.1-0.6,0c-1.3,0.4-2.4,1.4-3,2.5c-0.1,0.1-0.1,0.3-0.1,0.4
				c0,0,0,0-0.1,0.1c-0.7,0.9-1.7,1.8-2.8,2.3c-0.1,0-0.2,0.1-0.2,0.1c0,0,0,0,0,0c-0.2-0.2-0.6,0.1-0.4,0.3c0,0,0,0,0,0
				c0,0,0,0,0,0c0,0,0,0,0,0.1c0,0-0.1,0-0.1,0.1c0,0,0,0,0,0c-0.2-0.1-0.5-0.1-0.7,0.1c-0.1,0.1-0.1,0.1-0.1,0.2
				c-0.1,0.1-0.1,0.2,0,0.3c0,0,0,0,0,0c0,0,0,0,0,0.1c0,0,0,0.1,0,0.1c-0.1,0-0.1,0.1-0.2,0.1c0,0,0,0,0,0C77,24,76.9,24,76.8,24.1
				l-0.5-0.6l-2.1,1.8"/>
		</g>
		<rect x="67.4" y="31" transform="matrix(0.7523 -0.6588 0.6588 0.7523 -5.1304 53.5413)" width="2.5" height="5.2"/>
	</g>
	<g>
		<path class="st3" d="M79.3,72.8c-0.1,0.3-0.2,0.7-0.3,0.9"/>
		<path class="st3" d="M79,73.7c0.1,0.1,0.3-0.2,0.4-0.2c0.1,0,0.3,0.2,0.4,0.2c0.4,0.2,0.3,0.5,0.2,0.8"/>
		<path class="st3" d="M80.5,74.5c-0.2,0.1-0.3,0.2-0.4,0.3"/>
		<path class="st3" d="M86.7,82.5c0.6-0.7,0.3-2.2-0.8-3.3l-1.5-1.3c-0.6-0.1-1.1-0.4-1.6-0.7c-0.5-0.3-1-0.7-1.4-1.1
			c-0.2-0.3-0.5-0.5-0.7-0.8c-0.1-0.2-0.3-0.5-0.4-0.8c0,0,0,0,0,0"/>
		<path class="st3" d="M86.8,82.5c-0.6,0.7-2.2,0.6-3.4-0.3l-1.5-1.3c-0.2-0.6-0.5-1-0.9-1.5c-0.4-0.4-0.8-0.9-1.3-1.2
			c-0.3-0.2-0.6-0.4-0.9-0.5c-0.3-0.1-0.5-0.2-0.9-0.3c0,0,0,0,0,0"/>
		<path class="st3" d="M76.1,76.4c0.3-0.1,0.7-0.3,0.9-0.4"/>
		<path class="st3" d="M77,76c0.1,0.1-0.1,0.3-0.1,0.5c0,0.1,0.2,0.3,0.3,0.4c0.3,0.3,0.5,0.2,0.9,0"/>
		<path class="st3" d="M77.9,77.4c0.1-0.2,0.1-0.3,0.2-0.4"/>
		<g>
			<path class="st4" d="M64.1,60.1c-0.3-0.3-1.1-0.5-1.4-0.1l-1.5,1.7c-0.3,0.4,0,1.1,0.3,1.4"/>
			<rect x="56" y="55" transform="matrix(0.6587 -0.7524 0.7524 0.6587 -23.524 63.7889)" width="5.2" height="5.7"/>
			<path class="st4" d="M62.6,60.1c0.2-0.1,0.6-0.7,0.6-0.9c0-0.2-0.5-0.5-0.6-0.6c-0.3-0.2-0.5-0.2-1.2,0l-1.6,1.9
				c-0.1,0.7-0.1,0.9,0.2,1.2c0.1,0.1,0.5,0.5,0.7,0.5c0.2,0,0.7-0.5,0.7-0.7"/>
			<path class="st4" d="M64,60c0.3,0.3,0.3,0.7,0.5,1.1c0.2,0.4,0.4,0.7,0.8,1c0.3,0.2,0.6,0.4,0.9,0.5c0.5,0.1,0.9,0.1,1.3,0.5
				c-0.1,0.1-0.1,0.1-0.2,0.2l-2.2,2.6C65,65.9,64.9,66,64.9,66c-0.4-0.3-0.4-0.8-0.6-1.2c-0.2-0.3-0.4-0.6-0.6-0.8
				c-0.3-0.3-0.6-0.5-1.1-0.6c-0.4-0.1-0.8,0-1.1-0.3"/>
			<path class="st4" d="M66.6,66.8l1.8-2.1c-0.2-0.3,0-0.6-0.2-1c-0.2-0.3-0.6-0.3-0.9-0.4l-2.3,2.6c0.2,0.3,0.3,0.7,0.6,0.8
				C66,66.9,66.3,66.7,66.6,66.8"/>
			<path d="M77.4,70.9l2.1,1.8l-0.4,0.5c0.1,0.2,0.1,0.3,0,0.5c0,0,0,0,0,0c0.1,0,0.3-0.1,0.4-0.1c0.1,0,0.3,0.2,0.4,0.3
				c0.2,0.2,0.2,0.5,0.1,0.7c0,0,0.1,0,0.1,0.1c0,0,0,0,0,0c0.1-0.1,0.2-0.1,0.3-0.1c0.1,0,0.1,0.1,0.2,0.1c0.1,0.2,0.1,0.3,0.2,0.5
				c0,0.1,0,0.1,0,0.2c0,0,0,0,0,0c0.4,0.3,0.7,0.8,1.1,1.1c0.3,0.2,0.6,0.5,0.9,0.8c0.1,0.1,0.3,0.1,0.4,0.2c0.1,0,0.2,0,0.3,0
				c0.1,0,0.2,0.1,0.3,0.1c0,0,0,0,0,0c0.1,0,0.1,0.1,0.2,0.1c0.6,0.3,1.1,0.7,1.6,1.1c0.6,0.5,1.1,1.1,1.3,1.8
				c0.3,0.8,0.1,1.9-0.8,2.2c-0.3,0.1-0.6,0.1-0.9,0c-0.2,0-0.3,0.1-0.5,0c-1.3-0.4-2.4-1.4-3-2.5c-0.1-0.1-0.1-0.3-0.1-0.4
				c0,0,0,0-0.1-0.1c-0.7-0.9-1.7-1.8-2.8-2.3c-0.1,0-0.2-0.1-0.2-0.1c0,0,0,0,0,0c-0.2,0.2-0.6-0.1-0.4-0.3c0,0,0,0,0,0
				c0,0,0,0,0,0c0,0,0,0,0-0.1c0,0-0.1,0-0.1-0.1c0,0,0,0,0,0c-0.2,0.1-0.5,0.1-0.7-0.1c-0.1-0.1-0.1-0.1-0.1-0.2
				c-0.1-0.1-0.1-0.2,0-0.3c0,0,0,0,0,0c0,0,0,0,0-0.1c0,0,0-0.1,0-0.1C77,76,77,76,76.9,76c0,0,0,0,0,0c-0.1,0.1-0.2,0.1-0.3,0.1
				l-0.5,0.6L74,74.8"/>
		</g>
		<rect x="65.9" y="65.3" transform="matrix(0.6584 -0.7526 0.7526 0.6584 -26.6721 74.2788)" width="5.2" height="2.5"/>
	</g>
	<g>
		<path class="st3" d="M20.8,72.6c0.1,0.3,0.2,0.7,0.3,0.9"/>
		<path class="st3" d="M21,73.5c-0.1,0.1-0.3-0.2-0.4-0.1c-0.1,0-0.3,0.2-0.4,0.3c-0.4,0.2-0.3,0.5-0.2,0.8"/>
		<path class="st3" d="M19.6,74.3c0.2,0.1,0.3,0.2,0.4,0.3"/>
		<path class="st3" d="M13.3,82.3c-0.6-0.7-0.3-2.2,0.8-3.3l1.5-1.3c0.6-0.1,1.1-0.4,1.6-0.7c0.5-0.3,1-0.7,1.4-1.1
			c0.2-0.3,0.5-0.5,0.7-0.8c0.1-0.2,0.3-0.5,0.4-0.8c0,0,0,0,0,0"/>
		<path class="st3" d="M13.3,82.3c0.6,0.7,2.2,0.6,3.4-0.3l1.5-1.3c0.2-0.6,0.5-1,0.9-1.5c0.4-0.4,0.8-0.9,1.3-1.2
			c0.3-0.2,0.6-0.4,0.9-0.5c0.3-0.1,0.5-0.2,0.9-0.3c0,0,0,0,0,0"/>
		<path class="st3" d="M23.9,76.2c-0.3-0.1-0.7-0.3-0.9-0.4"/>
		<path class="st3" d="M23.1,75.8c-0.1,0.1,0.1,0.3,0.1,0.5c0,0.1-0.2,0.3-0.3,0.4c-0.3,0.3-0.5,0.2-0.9,0"/>
		<path class="st3" d="M22.1,77.2c-0.1-0.2-0.1-0.3-0.2-0.4"/>
		<g>
			<path class="st4" d="M35.9,59.9c0.3-0.3,1.1-0.5,1.4-0.1l1.5,1.7c0.3,0.4,0,1.1-0.3,1.4"/>
			<rect x="38.7" y="55" transform="matrix(0.7525 -0.6586 0.6586 0.7525 -27.6807 41.6112)" width="5.7" height="5.2"/>
			<path class="st4" d="M37.5,60c-0.2-0.1-0.6-0.7-0.6-0.9c0-0.2,0.5-0.5,0.6-0.6c0.3-0.2,0.5-0.2,1.2,0l1.6,1.9
				c0.1,0.7,0.1,0.9-0.2,1.2c-0.1,0.1-0.5,0.5-0.7,0.5c-0.2,0-0.7-0.5-0.7-0.7"/>
			<path class="st4" d="M36.1,59.8c-0.3,0.3-0.3,0.7-0.5,1.1c-0.2,0.4-0.4,0.7-0.8,1c-0.3,0.2-0.6,0.4-0.9,0.5
				c-0.5,0.1-0.9,0.1-1.3,0.5c0.1,0.1,0.1,0.1,0.2,0.2l2.2,2.6c0,0.1,0.1,0.2,0.2,0.2c0.4-0.3,0.4-0.8,0.6-1.2
				c0.2-0.3,0.4-0.6,0.6-0.8c0.3-0.3,0.6-0.5,1.1-0.6c0.4-0.1,0.8,0,1.1-0.3"/>
			<path class="st4" d="M33.5,66.6l-1.8-2.1c0.2-0.3,0-0.6,0.2-1c0.2-0.3,0.6-0.3,0.9-0.4l2.3,2.6c-0.2,0.3-0.3,0.7-0.6,0.8
				C34.1,66.7,33.8,66.5,33.5,66.6"/>
			<path d="M22.6,70.7l-2.1,1.8L21,73c-0.1,0.2-0.1,0.3,0,0.5c0,0,0,0,0,0c-0.1,0-0.3-0.1-0.4-0.1c-0.1,0-0.3,0.2-0.4,0.3
				c-0.2,0.2-0.2,0.5-0.1,0.7c0,0-0.1,0-0.1,0.1c0,0,0,0,0,0c-0.1-0.1-0.2-0.1-0.3-0.1c-0.1,0-0.1,0.1-0.2,0.1
				c-0.1,0.2-0.1,0.3-0.2,0.5c0,0.1,0,0.1,0,0.2c0,0,0,0,0,0c-0.4,0.3-0.7,0.8-1.1,1.1c-0.3,0.2-0.6,0.5-0.9,0.8
				c-0.1,0.1-0.3,0.1-0.4,0.2c-0.1,0-0.2,0-0.3,0c-0.1,0-0.2,0.1-0.3,0.1c0,0,0,0,0,0c-0.1,0-0.1,0.1-0.2,0.1
				c-0.6,0.3-1.1,0.7-1.6,1.1c-0.6,0.5-1.1,1.1-1.3,1.8c-0.3,0.8-0.1,1.9,0.8,2.2c0.3,0.1,0.6,0.1,0.9,0c0.2,0,0.4,0.1,0.6,0
				c1.3-0.4,2.4-1.4,3-2.5c0.1-0.1,0.1-0.3,0.1-0.4c0,0,0,0,0.1-0.1c0.7-0.9,1.7-1.8,2.8-2.3c0.1,0,0.2-0.1,0.2-0.1c0,0,0,0,0,0
				c0.2,0.2,0.6-0.1,0.4-0.3c0,0,0,0,0,0c0,0,0,0,0,0c0,0,0,0,0-0.1c0,0,0.1,0,0.1-0.1c0,0,0,0,0,0c0.2,0.1,0.5,0.1,0.7-0.1
				c0.1-0.1,0.1-0.1,0.1-0.2c0.1-0.1,0.1-0.2,0-0.3c0,0,0,0,0,0c0,0,0,0,0-0.1c0,0,0-0.1,0-0.1c0.1,0,0.1-0.1,0.2-0.1c0,0,0,0,0,0
				c0.1,0.1,0.2,0.1,0.3,0.1l0.5,0.6l2.1-1.8"/>
		</g>
		<rect x="30.3" y="63.7" transform="matrix(0.7525 -0.6586 0.6586 0.7525 -35.8758 37.2153)" width="2.5" height="5.2"/>
	</g>
</g>
</svg>
